<?xml version="1.0" encoding="utf-8"?>
<!-- Generator: Adobe Illustrator 16.0.0, SVG Export Plug-In . SVG Version: 6.00 Build 0)  -->
<!DOCTYPE svg PUBLIC "-//W3C//DTD SVG 1.1//EN" "http://www.w3.org/Graphics/SVG/1.1/DTD/svg11.dtd">
<svg version="1.1" id="Layer_1" xmlns="http://www.w3.org/2000/svg" xmlns:xlink="http://www.w3.org/1999/xlink" x="0px" y="0px"
	 width="150px" height="150px" viewBox="0 0 150 150" enable-background="new 0 0 150 150" xml:space="preserve">
<circle fill="#5B626E" cx="75.025" cy="75.188" r="74.75"/>
<path fill="#FFFFFF" d="M112.32,77.667c-0.392-0.013-0.782-0.002-1.15-0.039c-0.371-0.038-0.717-0.075-1.016-0.107
	c-0.064-0.006-0.117-0.011-0.178-0.019c3.335-0.23,5.859-0.985,5.859-0.985l-7.734-26.951l-7.734,26.951
	c0,0,2.566,0.768,5.941,0.991c-0.041,0.005-0.076,0.009-0.121,0.013c-0.299,0.032-0.645,0.069-1.016,0.107
	c-0.373,0.037-0.77,0.024-1.168,0.039c-0.04,0.002-0.08,0.002-0.121,0.003v11.649h1.76v2.563l1.243,0.415h-1.243h-0.355h-0.232v-2.1
	h-4.063v2.129h-2.5v-2.129h-4.062V73.91v-1.954h-3.276v1.954h-2.016v-1.954h-3.275v1.954h-1.119v-9.875
	c-0.086,0.004-0.164,0.006-0.258,0.007c-0.703,0.037-1.648,0.028-2.597-0.004c-1.882-0.045-3.765-0.089-3.765-0.089
	s0.238-0.024,0.617-0.063c5.457-0.172,10.781-0.641,10.781-0.641c-4.906-10.663-14.42-31.718-14.42-31.718
	S65.59,52.583,60.683,63.246c0,0,5.378,0.474,10.866,0.643c0.362,0.036,0.593,0.061,0.593,0.061s-1.882,0.044-3.765,0.089
	c-0.947,0.032-1.895,0.041-2.596,0.004c-0.117-0.003-0.217-0.004-0.318-0.009v9.877h-1.119v-1.954h-3.275v1.954h-2.018v-1.954
	h-3.275v1.954v16.287h-4.062v2.129h-2.5v-2.129h-4.062v2.1h-0.389h-0.355h-1.243l1.243-0.415v-2.563h1.76V77.67
	c-0.04-0.001-0.08-0.001-0.121-0.003c-0.398-0.015-0.794-0.002-1.168-0.039c-0.371-0.038-0.718-0.075-1.016-0.107
	c-0.045-0.004-0.079-0.008-0.121-0.013c3.375-0.224,5.941-0.991,5.941-0.991l-7.734-26.951l-7.734,26.951
	c0,0,2.525,0.755,5.859,0.985c-0.061,0.008-0.113,0.013-0.178,0.019c-0.298,0.032-0.645,0.069-1.016,0.107
	c-0.367,0.037-0.758,0.026-1.15,0.039v14.659v25.789v0.733h33.982h6.641h33.98V92.326h-0.014V77.667z M41.949,78.704
	c0,0,1.055,0.742,1.055,2.538h-1.055h-1.055C40.895,79.446,41.949,78.704,41.949,78.704z M75.104,85.1c0,0,2.664,2.141,2.999,7.227
	h-5.998C72.439,87.24,75.104,85.1,75.104,85.1z M75.104,68.436c0,0,2.064,1.604,2.105,5.475h-4.211
	C73.039,70.04,75.104,68.436,75.104,68.436z M75.104,118.203H62.904c0,0,3.693-0.138,3.693-1.66c0-1.523,0-8.554,0-8.554
	s-0.543-2.058,2.861-3.494c3.406-1.435,5.645-2.269,5.645-2.269s2.236,0.834,5.643,2.269c3.406,1.437,2.863,3.494,2.863,3.494
	s0,7.03,0,8.554c0,1.522,3.692,1.66,3.692,1.66H75.104z M108.102,78.704c0,0,1.055,0.742,1.055,2.538h-1.055h-1.055
	C107.047,79.446,108.102,78.704,108.102,78.704z"/>
</svg>
